/* XPM */
static char *result[] = {
/* columns rows colors chars-per-pixel */
"64 64 26 1 ",
"  c #2F2F37",
". c #363638",
"X c #39393A",
"o c #3C3C3D",
"O c #3E3E3E",
"+ c #3F3F40",
"@ c #3D3D43",
"# c #434343",
"$ c #444444",
"% c #484848",
"& c #4B4B4B",
"* c gray31",
"= c #515151",
"- c #57575A",
"; c #5D5D60",
": c #646464",
"> c #686868",
", c #747474",
"< c #797979",
"1 c #9C700E",
"2 c #9C7020",
"3 c #EB9D0E",
"4 c #EB9D20",
"5 c #FCEE4B",
"6 c #838383",
"7 c #FFFFB5",
/* pixels */
"<<<<<::::=================@@@@@==::::::::::::=================:<",
"<<<<<:::=================@@@@@==::::::::::::==================:<",
"<<<<::::================@@@@@@==::::::::::::==================::",
":<<::::===@@@@=========@@@@@@@@==::::::::::========@@==========:",
"::::=====@@  @@@@22@@@@@@@@@@@@====::::::========+++@@==========",
"=======@@@     @2222@@@@@@@@@@@@====::::=======#++++++@======@==",
"======@@@       222@@@@@@@@@++@@====::::======##++++XXX@====@@@=",
"=====@@@:::::  ==2==@@@==@@+++++@====::======##++++XXXXX@==@@@@=",
":::@@@@::<<:::===::======##++oooo  ==========+++++XXX2222@@@@@@@",
"::::::::<<<<::::::::===####O.22oo         @@@@++++XX2222222@@@@@",
"::::::::<<<<::::::::=####OOO2222oo            +++XXX22332222@@@@",
":===:::::<<::::::::=####OOO222222o==    :::::::+XX$222333322@@@@",
"@@@===::::::::::===####XXX22233222===:::::<<<<:$$$222333322==@@@",
"@@@@===:::::::====###+XXXX22333322==:::::<<<<<<&$2223333322:===@",
"@@@@====::::======##+XXX22223333222::::::<<<:<<&&222333322::==@@",
" @@@@====::======##+XXX222243334222:::::::<<<::&2223333312:===@ ",
"   @@@@=========#++XXX22233345543222%::::::<<<::223333322>>==@@ ",
"    @@@@========++XXX222333355533222%:::::::<<::23333332>>==@@@@",
"    @@@@=======#+XX22233333355553222%%::::::<<<::333332,>>==@@@@",
"@  @@@@========#OX2233344335555543222%:::::::<<::,333,,>>====@@@",
":::::@@======:%#O33343335555577553322::::==::::::,,>>>>>=====:@@",
":<<<::::====::%%333335555555777753322:::====:::::=>>>>======::::",
"<<<<<<<:====:::%333355555555777753222::=====::::============::::",
"<<<<<<<::==::::#>3333555555557753322:========:=======@@@@====::<",
"<<<<<::::::::===>>>33335555555534222>>===@@======@@@@@@@@@@==::<",
"<<<<::::::::=====>>>>33355555533322>>>==@@@@===@@@@    @@@@@==::",
"<<<<::::::::======>>--3355553333222>>===@@@@@@@@@       @@@@==::",
":<<::::::::=======  --;33553333222>>>====@@@@@@@       @@@@====:",
":::::::=====@@@@   @@;;333333322,>>>:::====@@@@@     @@3333====:",
":::::====@@@@@@@@@@@@;;233333226,,>,::::====@@@@    @3333222====",
"::::====@@+++@@@@@@@@;;233332266,,,:::::====@@@@    33332222====",
"::======#+++++@@@@@@@;;223322666,::::::::====@@@@  @@322222=====",
"=====@@####222@@@@@@@;;-2222266<:::::=:::::====@@@@@@@@222@=====",
"====@@++#222232@@@@@@@;->222666:::::===:::::====@@@@@@@@@@@@====",
"====@@++2222333@@@@@@@ ->>2,66::::::====::::====@++@@@@@@@@@====",
"===@@@@+22243333@@@    =>>>,,6:::::======::=====++++@@@@@@@@@===",
"=@@@@@@@22333353;    ===>>>>:::::========@@====OXX+++  @@@ @@@@=",
"@@@@@@@@23333555-   =====>>>::::========@@@@=OOOOXX+oo      @@@@",
"@@@@@@@@@2335555>>=======>>=::::=======@@@@XOOOOOXXX++o     @@@@",
"@====@@@ --3355>>>===========::=====@@@@@XXXXOO2222XX++==  @@@@@",
":::====  >>>>>>>>@@==============@@@@@ ....X22222222XO##=:@@<<<@",
"::::======,>>>>=@@@@=========@@@@@@@@ ....22222233222O#%*<<<<<<<",
"::::====::::===@@@@@==::====@@@@@@@@ o..22222223333322$**<<<<<<:",
":::::==::::====@@@@::::::======@@@@@+..22222233433335222**<<<<::",
"::::::::::===@@@++::::<<::<<<<===@@++X2222233333477555522**<<:::",
":::::::::===@@++++%::<<<<<<<<<<===#+++22233333337777555522**::::",
"::::::::====+++++%%:<<<<<<<<<<<<==##+222333333337777555522<*%:::",
":::::::====++++222%%<<<<:<<::<<::==##22333333335577555522<<:::::",
":::::====@+++222233%<<<:::::::2::::=>>233333335555555222,:::::::",
"::::====@@+222223333<<<::::::222::::>>2233333555555522>>,:::::::",
"::::====@2222223333333<<::::2222::::=>>222333555555;;;>=::::::::",
":::====2222223345553533:::::,22,:::==>>;2223435555;;@@@==:::::::",
":@@@@@22222443555755555:::::,,,,:====@@;;22233335-- @@@@@@@:::@@",
"@@@@@2222333555577775555::::::,:====@@@@--2233332-      @@@@@@@@",
":@@::2223333555577755555::::@@@:====@@@@ --223322-      @@@@@@@:",
"::::::22233335555755555==::@@@@@@==@@@@@@ -22222;-     ::@@@@:::",
"::<<::::,,,3333555555@@@@@@@@  @@@@@@@@@==>>>>>>>====::::33::::<",
"<<<<<<:::,,,33335555@@@@@@@@    @@@@@@===::,>>>>====::::3333::<<",
"<<<<<<<:::,,,,333553@@@@@@@@    @@@@===:::::========::::333::<<<",
"<<<<<<<<::::::,33333===@@@@@   @@@@===<::::::========::::3:::<<<",
"<<<<<<<<:::::==,,,,>======@@@  @@===:<<<:::::::========:::::::<<",
"<<<<<<<:::::====::,,=======@@  @@==::<<<::::::::=========:::::<<",
"<<<<<<<:::======::::=======@    ===:<<<<::::::::==========:::::<",
"<<<<<<:::========::=======@@    ==:::<<::::::::============:::::"
};
