/* XPM */
static char *_ae43e3650b54cf5cb13bcbe00d6e8da7i8HzlNPgWyZ261p[] = {
/* columns rows colors chars-per-pixel */
"64 64 45 1 ",
"  c #323236",
". c #333336",
"X c #343437",
"o c #343438",
"O c #353539",
"+ c #363639",
"@ c #37373C",
"# c #38383D",
"$ c #3B3B3F",
"% c #3C3C40",
"& c #3C3C41",
"* c #3D3D42",
"= c #3F3F44",
"- c #404045",
"; c #434348",
": c #43434A",
"> c #45454B",
", c #45454C",
"< c #47474D",
"1 c #48484F",
"2 c #4B4B51",
"3 c #4C4C52",
"4 c #4D4D53",
"5 c #4F4F56",
"6 c #505056",
"7 c #515157",
"8 c #525259",
"9 c #535359",
"0 c #54545A",
"q c #55555B",
"w c #55555C",
"e c #57575F",
"r c #585860",
"t c #5A5A62",
"y c #5B5B65",
"u c #5C5C66",
"i c #5D5D67",
"p c #5F5F67",
"a c #606068",
"s c #62626A",
"d c #62626C",
"f c #64646C",
"g c #65656E",
"h c #66666E",
"j c #6D6D76",
/* pixels */
"h52222.###$&$725574252--o@$>8ussuut541>##&#@X>4sssssq744aausjjhh",
"522244##&&&4hhhttt<55<-o@@$>tsssuuit1411#&&@oX-8ssqqq4-4uasjjhhu",
"22222#&#&&5hhjshhtt241=o#>>ujsquhhiie64><o#&##oo=744-;4aaajjuuuu",
"27727o$&-5hjjhhsht774<oo>>ujst78thiit7412<#&##oooX#X;4uasjhhiu78",
"77774#&=5sjjshsyt57522#X$tsstq55qtjht75755o&#&&&&###aasuuyq7qqq4",
"7777&#&4sjjjhsuy755722=>tsst87554qhjt788551#o#&&&&#4easstq447444",
"7772&#ssjjjhstt785427<#>tst8755575t887q7q57&#@#&&&#5eeuuq88q4444",
"7722#4sssjsttt7<<725>2X:tt88555555q5qq8q885&@o@#-&&#ettuuqq24444",
"745#5sguthtt77<<4242>X:4tsd885555q414q947q7>o#o#-&&&#4eeuu744447",
"44@#2siytt747<<22424>X:4tsssyw8w8q444147477qoo#o#&&&#4ttsu747477",
"4.&&o4tty57<115211>:-o>4tsitwyy87441444q7q7$oX@##&&&&#eeeteq4774",
"oo&&.4ttu8<51<3<1<>>Xoo5tsiywwr841114144q87XoooXo&&&&&47eq8qeq44",
"#&&&%%5ttt8<112211>>oo@22stt35351117444142&oX#X&7774#&&#45114###",
"#&&&%%o3tt55112211>Xoo@:<st53233411147444&oo#$5tfuaa7#&&###X.X##",
"##&##%&&4tt85<11>>oo@o@:2t22153344114444$#X#7usaaaaaaa7$&&&&&&##",
"&4455#&&..tt5811oooo&#o@25221<55444141$$@$7tussaaaaaaq77&&&&&&&&",
"ttuiiu#o#o#o###Xooo&#&##$&>222234411&@XXtsssjssstteq14447$&&$;;;",
"etusfu7##oo#o@##-:oo&#&#&&<<4215241&X&&tssjsssteeq44444197&$;;-4",
"tshhsss4####&$&&555@###-=&@&1<1<&&XXo&sssjsstee874141414447#;;tt",
"shhdsst4o###-57ett8qq8--==oo&21&XXXo&tsjjssetq444144444414e7;-te",
"hhhhet414o:788hhuuuuuuqq5%%@#oo#o#o&tsjjjstu74444747q7444887@4th",
"shhet2124#78uhjhjhhuuhtt85==#o#ooo&8sjjjsuyq444<4777qq747777-4hh",
"hhtt411<#-uqhjhuhhttht8t247&-o$o--Xtjjjstu74747qq77777q77777$44h",
"dte441<4o4uuhhiihtttq8qq22<5X&&=&&o7jssyu744778qq77447qqq5qq@4<h",
"tt<2>44#$4ushuiuttq422<2<3<35o@&&&&&8tse7474787877q7qqq777t7o#14",
"t52<<>o#&&uuuyit8q44522:2:335o@o&&&&X7q84257qqq877qqq77q787o##11",
"<<<<4@$@&$5ttt8874442<<2:235o@@%&&&&&&8847787q77787778qeeq####@4",
"<<5<oo$$-#&5ttyt4441>2><325o@@%%--->&&o4448qq7777qqq7qqqXX$$#@@@",
"444@@$>1>>:<$-7tt78422525=@@@%=7777474%%-7tttt7778q7tt7X#$$#-&-#",
"#oo#&&1152<1ooo&--7745-.o@o@=58577tt44-=&o--=q877778qXXX$$#-----",
"##&$<>488ii8-###o##&%o#@@@=8tt88ttsstt5544&#&&:-&&$X$$#$$#&-&---",
"&&&#147uyuiiu8-o#XX#.#@o@=85855ttsssstt4447-:&X&&->-#$$#&------&",
"&&&#4aausjjjuua974$$$o#$777tt7ttsssssstt78q424<=<8888-##-&&-&&--",
"&&#$quujjjssuata947@$$$;77hssttsssshssste88e42<2tt8888-&&--&&&-&",
"&&$4uujjssssttfe7447$$#--777teessshshssstq72=5:8tttt7888##&&&&&&",
"&&$4ausssssftte94447$#$$--77e7eessshshsstq74<=888tttu88-##&&4444",
"7#$4etttssste96114794X&#o:---87ttsshssstt574248888->&-###X4qqtss",
"4##77ttttt77661647994X&&#o--=>77tthssstt754>424888&Xoo@@7eqtssst",
"44&&7<757q7716166966XX&&&##oo--7777ettt757<->442=$ooo&qq4qtssstq",
"47o&57<7<17<61969616X#$&&&##oX--4777tt77822<->24&.oo&4etthssss85",
"44Xo@77766141769614X$$$$&&&&####=-<8877<252224-&ooX#9qthsssstt44",
"44@o@X777744779911XX$@&$&&&&---#.o=<22<:224242&ooo&4thhhssstt844",
"44XooXX7144411114XX$$&&&$&------##o-<<4422<<-&oo&&78hhsstttt7444",
"4-Xoo@#X67741116XXX$&&&444454>--##oo---452<#Xo#@$4qtshsttttq4444",
"4#X#o###Xo@777X@X$#&&&4uuhtt4444<###Xo--=-####%%qqthsstt7eq94414",
"-###@@###XX+XXXX##&&&4auuuhht44444##oooo######%7ehhhftt49qq44444",
"-&@XX$X$X#@@####$$&&uuuutshhht44>>>t>>oooo#&&&q8thhhtt76q9746111",
"oX#o&$474444#####&&5suauhhshsht44>ttdt44##&&&5qthhshte477q449611",
"oX&&yyyuteet75@##@$444teaafftetqqtddssst$-&&#48yssstte5544qq414-",
"@#&7yyyeetttq84#@@+$4146aahett88tdddssss4&&$&5eqssss8444478q<1#X",
"&&uuyytttyetqt75#@##X414etett8q8ttdddtttat4$$&e8etss874547q45&##",
"&4tuttttuutette7-#@#XX414tetqq88tt8dttttus74&$8888ss545548444-##",
"4uuifusuq88te575--oo##X51-->qq<>4t8t8ttet2<>&&&4118t55854241-#@&",
"uuuuusfiut8q57544&-#o#Xo-$&->>>>>4t588et55<%=&o&11<7585424<2Xo&5",
"uissiitiiit88q7>>4-&&@@oXX>>$1<>1&>>4525222==&#o#411<2224<5o##-4",
"iiseiittiiue88<<44487&@XXXXX-&<>-&:<<5552222<<&&##112222<2o##&-&",
"&7ee879etiuut22477<24242#X##XX--&oo&1>1417>>><=#&&##4477@@#@$&-&",
"-&118q77ttuyt4<88t8424247#X#XXXXoXoo1<:51><><%o&#-##o#.X@o$#&-&-",
"&&&711<<8ttt4288te8<42<<11+@#$$o##o#o&&&1<>1=@%&&&&o#&&&&##&&&&-",
"44&@1><<18e124<288<224<<<<@X-$$@1<##oXoX$1>&@@%&5745&--&&&&&&-&4",
"7514-$-7<<>144<82424<15qX@----qt61<<####X&-X$-#4yuuu84$&&&&&4s88",
"55474&@-<111<2<<4442<1XX@--&-qua64111###XXXX--5uaahs8q4&&&&4uuu8",
"447514-&o---&4577-###&-o----qttfe1161<######&&aahhhuu578&-4yshue",
"745544&@oX##o--o##&45---&@-&qafatt4441#&$###&4ahhhauuuqq44syjhhu"
};
