/* XPM */
static char *_43cedb1e84f4976eb7c8fd1d0cb902eUVdkfIosaOWzHp73[] = {
/* columns rows colors chars-per-pixel */
"64 64 61 1 ",
"  c #02110D",
". c #03120E",
"X c #041410",
"o c #041612",
"O c #041712",
"+ c #051712",
"@ c #061814",
"# c #061914",
"$ c #1F3A33",
"% c #203D36",
"& c #223F38",
"* c #24433B",
"= c #224548",
"- c #264B4C",
"; c #2F584E",
": c #2F5754",
"> c #335C52",
", c #325C57",
"< c #356257",
"1 c #36615B",
"2 c #356458",
"3 c #376459",
"4 c #35645B",
"5 c #38675B",
"6 c #3A675F",
"7 c #3A6B5F",
"8 c #3D6B62",
"9 c #3B6C60",
"0 c #427367",
"q c #487B6D",
"w c #508775",
"e c #70967E",
"r c #AAA46E",
"t c #ACA770",
"y c #ADA971",
"u c #AEAA73",
"i c #B0AA75",
"p c #B0AE75",
"a c #B1AE76",
"s c #B3AE78",
"d c #B5AF79",
"f c #B7B27A",
"g c #B8B47C",
"h c #B9B77D",
"j c #99C693",
"k c #BFC187",
"l c #C0C287",
"z c #C6C28D",
"x c #DCD9A5",
"c c #DFDDA7",
"v c #E0DFA8",
"b c #E0E0AA",
"n c #E2E0AC",
"m c #E3E1AD",
"M c #E5E4AF",
"N c #E5E4B1",
"B c #E9E6B1",
"V c #EBECB4",
"C c #EBEDB4",
"Z c #F3F8BE",
"A c #F9F9C5",
/* pixels */
"qqqqqqqqqqqqqqqqqqqqqqqqqqqqqqqqqqqqqqqqqqqqqqqqqqqqqqqq00000888",
"qqqqqqqqqqqq000000qqqqqq0000000000000000qqqqqqqqqq00000000008881",
"qqq000000000000000000000000000000000000000000000000000008811888,",
"qq0000000000000000000000000000000000000000000000000005788188888,",
"qq000eeeee======4444ejjeuui,:======::iiiejje44444---==eeeee0885,",
"qq00ejjje==--=====4444eeihii::====::iihiee444444-----==ejjje888,",
"qq00ejje==--::::::::4444Ahhiu::::::iuhhA4444::::::--=-==ejje88,1",
"qq00eje==--:::::::::::444Ahhii::::iihhA144::::::::::---==eje8011",
"qq00ee==--::yyyyyy00000444AhhhiuiihhhA44400000dspppp::--==ee88:,",
"qq00e===-::yyyyyyyyy0000044AhhhhhhhhA4400000aassppppu::--==e1811",
"q000===--:yyrrsssssyyyw00044AAAhhAAA44000wllllllkpppgu::--==8811",
"q000===-:yyysssssssstyrw000444AAAA414000wlllllllkkkpppu>---=8811",
"q000==--rrrsssssCCnnssssw00044444444000wllllMMMMkkllauaa,---18:,",
"q000==--rrssssCCCCCnnnssdw000054440000wlllMNMMMMMbllluau:---8111",
"q000==--rysssCCAAAAAAnnsssww00080000wwlllNNAAAAAAMMkkaaa::--8811",
"q000==--rysslnAAAAAAAAnnsssswwwwwwwwllllNNAAAAAAACbkkkas::--1111",
"qq00==--usssnbAA&=***********$&&%************%**CCbbllap>:--5111",
"qq00==--usssmmmA***%******$*$*&&&%$$******$$$**;Cbnnllap::--8,11",
"qq00==--usssnnCV**&%%%%%$****$&&$$$$$$$%$$$$**;;Cvnnllha:---8111",
"qq00==--usssnnmC*%%%$$$%$$$$$$$&$$$$$$$%$$%%*;;;VCbbllaa:---8111",
"qq00=---uudsmmMC%%$$    ........  ..        >>;;BVBvkgas:---1111",
"qq00=--euuysmvvC%%$$    ........  ..        >>;;BBxvlgase:--8111",
"q000---euuysvmCC&&$$    ............        2>;;BBvvhhife:--8511",
"q000--eeuydsmmCC&&$$    ............        2>;;BBBvhhssee:=8811",
"q000-ejeuuaaxbCA&&%%....X##X############OOOO44;;BBcchhddeje:88,,",
"q000ejjeuuuaxxCA&&$%....XXXX############OOOO2<;;BBcczhddejje88,8",
"q000ejjeuauaxxAA%%$$....X##X############OO@X<<;;BBcczzddejje88,8",
"q000,ejeuaaaxxNA%%$$....#X#####+########OO+X<<;;BBcczdddeje:88,,",
"q000,,eeuuaaxNNA*&$$  ..#####.OOXX. X#.#@@@@92;;Bcvvzdhdee::,111",
"qq00,,,eruaaxNNA*&$$  ..####++OO@X.O#X++@@@@92;;Bcvxzdhde:::1111",
"q000-,,,ruyaMMNA*&%$ ...####+++O++OOOO++@@@@99;;Bcnxzzdh::==1111",
"q000=-,,ruyaxMAA*&%$ ...####++OO@XOOOO++@@@@49;;BBbxzzhd::==1111",
"q000=-,,rtytxxAA*%$$....@XX OO+.OOXOXXXoX@@O22;;NBxxzhhf::==1111",
"q000-,,,rttyxxAC$*$$....OXXO @XOX XXOXoXXXOO39;;NNxxhhhf::==,111",
"qq00,,,errttxxCC*%$$....OOOOOXO.XOXOXoXoXXO+55;;NNxxhhffe:::8,11",
"qq00,,eerrtuxxCC%*$$....oX@XXXOO@OOXoXoX OOX55;;NNxxzhffee::8811",
"q00q,ejerttsxvVC$&$$....@@@@OOOOXoXoXXXX++++<5;;NNNxklffeje:88,1",
"q00qejjertusvvNC$*$$....@@@@OOOOoXoXXXXX++++2<;;NZNxllffejje8811",
"qq0qejjetutsvvNN&$$$....##@@OO++XoXoXXXX+++X<<;;ZZNxluffejje8111",
"qq0q,ejettssvvNN$$$$....####++++oXoXXXXX+++X<<;;ZZNNlaifeje18111",
"qq00,,eettssxCNN*&$$O  X########X@@@X+OOOOXo72;;ZZNNhhiiee441111",
"qq00-,,ettssCCNN**$$ X  ########@@@@+@OOOOoo78;;ZANNhliie4441111",
"qq00=-,ettssVCNN**$$X X ###+####@@@@+X++oooo77;;ZZNNlhiie44:1111",
"qq00==:,rtssvVNN**$$  X ###+####@@@@+X++oooo77;;ZZNNllii444:1111",
"qq00==::rsssMmmA****42<<778722241433<777994992;;ZZNNllgi44::8,11",
"qq00==::rsssmmAA***542777<222221413577879999,2;;ZZNNllgu44::8,11",
"qq00==::rgdavmAA*%;;;;;;;;;;;;;;;;;;;;;;;;;;;;;;ZAbvllff44::8,11",
"qq00==::rgdgvNAA$;;;;;;;;;;;;;;:;;;;;;;;;;;;;;;;ZCvNlkhf44::8811",
"q000==::ttfdlNAAAAAAAAVVlkllwwwwwwwwllllvZZAAVVVVVvlkkhg44::88,4",
"q000==::rrhdlvvAAAAAAbVllkww0000000000llkcZACVVCCvvlkkhh44::748,",
"q000==::rrddkkvmmmnnmnlkkww044444444440lkkvvvmbmvmllkhgg4:::88,,",
"q000==::rrghgkkkmmmnhgkkww0144::::::4440kkkkNvmnzlllgghg4:::,8,8",
"q000===::tgghgkkkkkkhgkww044::AAAA::::444lllllllkkhhhhh4::::88,,",
"q000===:::gggghgkkkkggww0444AAAhhAAA:::444lllkllkhhhgg4:::::8412",
"0000e===:::gggdgggggwww044:AhhhhhhhhA:::4444hghhhhhhh4:::::e8811",
"0000ee===:::ggggggwwww0444AhhhiiushhhA::::4444hhhhhh1:::::ee,811",
"0008eje===::::0000000,44:Ahhii0000iihhA:::::9,44441,:::::eje8,,8",
"000,ejje====::::00004144Ahhii000000uihhA::::::4444::::::ejje888,",
"0008ejjje=====::::::,:eeihii00::::00iihiee:::::::::::::ejjje188,",
"00810eeeee====::::::ejjeiii00::::::00iiiejje::::::::::eeeee0888,",
"008881888188888,,888888881881811818898988888888888,88188,8881,8,",
"088,888188188188888,88881881888818118188888888888888888,88188881",
"888,1111,,1111,,,8,8,,1111,41888888881:11111,,8888,88,11,111,8,1",
"888,11111,111111,8,,,811111,1,,1,,,8,1,,1111,8,,,8,,111111111111"
};
