/* XPM */
static char *_bdd010bbaad4e69ab00a6599bb2016fFAAc1dpuV2k26FsA[] = {
/* columns rows colors chars-per-pixel */
"64 64 55 1 ",
"  c #1F3A33",
". c #203D36",
"X c #223F38",
"o c #24433B",
"O c #224548",
"+ c #264B4C",
"@ c #2F584E",
"# c #2F5754",
"$ c #335C52",
"% c #325C57",
"& c #356257",
"* c #36615B",
"= c #356458",
"- c #376459",
"; c #35645B",
": c #38675B",
"> c #3A675F",
", c #3A6B5F",
"< c #3D6B62",
"1 c #3B6C60",
"2 c #427367",
"3 c #487B6D",
"4 c #508775",
"5 c #70967E",
"6 c #AAA46E",
"7 c #ACA770",
"8 c #ADA871",
"9 c #ADA971",
"0 c #AEAA73",
"q c #B0AA75",
"w c #B0AE75",
"e c #B1AE76",
"r c #B3AE78",
"t c #B5AF79",
"y c #B7B27A",
"u c #B8B47C",
"i c #B8B57C",
"p c #B9B77D",
"a c #99C693",
"s c #BFC187",
"d c #C0C287",
"f c #C6C28D",
"g c #DCD9A5",
"h c #DFDDA7",
"j c #E0DFA8",
"k c #E0E0AA",
"l c #E2E0AC",
"z c #E3E1AD",
"x c #E5E4AF",
"c c #E5E4B1",
"v c #E9E6B1",
"b c #EBECB4",
"n c #EBEDB4",
"m c #F3F8BE",
"M c #F9F9C5",
/* pixels */
"3333333333333333333333333333333333333333333333333333333322222*<<",
"333333333333222222333333222222222222222233333333332222222222<<<<",
"33322222222222222222222222222222222222222222222222222222<*<<<<<%",
"33222222222222222222222222222222222222222222222222222<:1*<*<<<<;",
"3322255555OOOOOO;;;;5aa500q##OOOOOO##qqq5aa5;;;;;+++OO555552*<<%",
"33225aaa5OO++OOOOO;;;;550pqq##OOOO##qqpq55;;;;;-+++++OO5aaa5<<<%",
"33225aa5OO++########;;;;Mppqq######qrppM;;;;######++O+OO5aa5<<%*",
"33225a5OO++###########;;;Mppqq####qqppM%;;##########+++OO5a5*2**",
"332255OO++##99997022222;;;MpppqqqqpppM;;;22222rrwwww##++OO55<<%%",
"33225OOO+##99999709922222;;MppppppppM;;22222rtrrwwwww##++OO5*<%<",
"3222OOO++#9966rrrrr0974222;;MMMppMMM;;2224ddddddseewww##++OO<<%<",
"3222OOO+#999rrrrrrrt7774222;;:MMMM;;;2224ddddddddsswwwe#+++O<<%%",
"3222OO++666rrrrrbbczrtrr4222--%*;;;;2224ddddcxxxdssse0ee#+++*<%%",
"3222OO++66rrrrnnnnbjjjrrt42222*:;;22224dddzcxxxxxxsssee0#+++<*%<",
"3222OO++69rrrnnMMMMMMlcrrt442222222244dddccMMMMMMxxsderq##++<<%<",
"3222OO++69rrdlMMMMMMMMjhrtet44444444ssddccMMMMMMMnksssqr##++%<%%",
"3322OO++0rrrlkMMXOooooooooooXXXXXXo.oooooooXo.oonnkzddww$#++:%**",
"3322OO++0rrrzzzMooo.ooooooXXXX..X.. oooooX. .oo@nkzkddww##++:;**",
"3322OO++0rrrllnbooX.........X.....  .. ..   oo@@bjkzddpw#+++<***",
"3322OO++0rrrllzno...   .........      ..  ..o@@@bbjjddwq#+++<***",
"3322O+++00trzzxn..  xbbbnnnbbbbbbbbbnbbnbnnn$$@@vbvjdiqy#+++*%%*",
"3322O++5009rzjjnX.  bb6q9nbbbbbbbbbbnnb96qbn$$@@vvgjdpqy5#++<<**",
"3222+++5009rjznnXX  nqqq9qbbbbbbbbbbnn9q8q8n=$@@vvgjppqe5#++*<**",
"3222++5509trzznnXX..nq6q9q9bbbbbbbbbn009q8qn=$@@vvvjppyy55#+<<**",
"3222+5a500eegknMXX. bq88q9q9nnnbbbnn88q89q9n;-@@vvjjpptt5a5#<<%*",
"32225aa5000eggnMXX  bbq88q9q0nnnbbn8q89q9qnn-%@@vcgjdptt5aa5<<**",
"32225aa50e0eggMMXX  bbn700q900nnbbqq09q99nbb&&@@vvjgfftt5aa5<2**",
"3222%5a50eeeggcMXX  bbbb0000000nb6q60q9qbbbb&&@@vvjjfttt5a5#<***",
"3222%%5500eegccMoX  nbbbn9q99q000000000nbbbb<%@@vjjjftpt55##%***",
"3322%%%560eegccMoX  bbbbnn99q900000000nnbbbb<%@@vjjgftpt5###%***",
"3222+%%%609exxcMoX  bbbbnnnq9000009q9nnnnnnn>1@@vjjjffyp##OO****",
"3222O+%%609egxMMoX  bbbbnnnn0000009qnnnnnnnn:1@@vvjgffut##O+****",
"3222O+%%6669ggMMo   bbbbbbbb00000000nnnnbbbb<-@@ccggfppy$#OO%***",
"3222+%%%6999ggMnXX  bbbbbbb0000000000nbbbbbb::@@ccggpppy##OO%***",
"3322%%%56699ggnnXX  bbbbbb00000000009qbbbbbb::@@ccggppyy5###<%**",
"3322%%556696ggnnXX Xbbbbb00000000000999bbbbb::@@ccggfpyy55##<1**",
"3223%5a5677tgjnn o Xbbbb0000000bb000e000bbbb&:@@cccgddyy5a5%<<%*",
"32235aa5677tjkxn    bbb0000000bbbb0099000nbb&&@@cmcgddyy5aa5<<**",
"33235aa5997thkccX   bb0000000bbbbbb0000000bb&&@@mmcgdqyy5aa5<***",
"3323%5a596ttkhccXX  b0000000bbbbbbnn0000099n&&@@mmccdqqy5a5*<***",
"3322%%5596yyknccX   v900090nbbbbbbbbb999000n1&@@mMccppqq55;;;%%<",
"3322+%%596r0bbccOX  n00099nnbbbbbbbbbbq9000n11@@mMccpsqq5*;;%<%%",
"3322O+%569rrbnccoo  bn900bnnbbbbbbbbbbnq00nn,,@@mmccspqq5;;#**<%",
"3322OO#%69rrhnccooX bnnnbbnnbbbbbbbbbnnnbbbb,,@@mmccdd00*:;#*%<%",
"3322OO##6rrrlxcMoooo-==%,,1,==------;<,1<1,,,&@@mmccddpr%<##<%<%",
"3322OO##6rrrlcMMooo--=,1,==&==&;----,,,<,,,,&&@@mmccddu0;%##<%<%",
"3322OO##6yrrxlMMo @@@@@@@@@@@@@@@@@@@@@@@@@@@@@@mMgjdduu;;##<%%*",
"3322OO##6uryllMM @@@@@@@@@@@@@@#@@@@@@@@@@@@@@@@mbjcssup;;#%%2**",
"3222OO##76utdcMMMMMMMMbbdsdd44444444ddsskmmMMnnnbnjdddpu:;##11#%",
"3222OO##66uqsjjMMMMMMjbsss442222222222dsskmMnnnnbhjdsspu;;##11<%",
"3222OO##66uussjccjjcccssf442;;;;;;;;:;2sssllklchzzddspuu;###<<%*",
"3222OO##66uuusddjjchuuss442%;;######;;;2ssssllkksddduuuu;###<<**",
"3222OOO##7uuuussssssuud442;;##MMMM####;;;ssssssssdpppup;####1*%%",
"3222OOO###uuuuuusssspu442-;;MMMppMMM###;;;ssssssspppup;#####*<**",
"22225OOO###uuuuuuupu4442;;#MppppppppM###;;:;uuuuppppp;#####5<<**",
"222255OOO###uuuuuu44442;;;Mpppqq0wpppM####;;;1utpppp;#####55<<**",
"222<5a5OOO####2222222%;;#Muuqq2222r0ppM#####*1%1*%*%#####5a5<<#%",
"222%5aa5OOOO####2222%<;;Mppqq22<2220rupM######1%*1######5aa51*<*",
"222<5aaa5OOOOO########55ruqq22####22qqp055#%###########5aaa5<*<%",
"22<<255555OOOO######5aa5qqq22######2200r5aa5##########55555<<<<%",
"22<**<*%<%*<<;<;<*<<<<<<<<*<<<%<%<%<1;<%<<<<<<<<1<1**<<<<*<<<<*%",
"2<<<<2<<<<<2<<%<<<<%<<<<<;<**<<<<<<<<<<<<<<<<<<<11*1<<<*1<<<<*<%",
"<<<#****%%****%%****%%%<%<%%%<<<<*<*2*%%****%%<<<<<*<%**#%**%<%*",
"<2%%*****%****%<*****%%<%%%<<%%**%<%%***********#**%************"
};
