/* XPM */
static char *result[] = {
/* columns rows colors chars-per-pixel */
"64 64 68 1 ",
"  c #251909",
". c #271B0B",
"X c #291D0C",
"o c #2A1D0D",
"O c #2B1E0E",
"+ c #2C1F0E",
"@ c #2D1F0F",
"# c #2E210E",
"$ c #30200E",
"% c #30210E",
"& c #2E2111",
"* c #302010",
"= c #302312",
"- c #342512",
"; c #352613",
": c #3B2915",
"> c #402B13",
", c #432B13",
"< c #402B16",
"1 c #6E442B",
"2 c #6E442D",
"3 c #70462D",
"4 c #6B4131",
"5 c #784336",
"6 c #704930",
"7 c #754930",
"8 c #7B4F34",
"9 c #815435",
"0 c #82543A",
"q c #84563C",
"w c #895A3A",
"e c #895B3A",
"r c #8B5A3C",
"t c #905F3F",
"y c #915F41",
"u c #915F44",
"i c #976041",
"p c #9D6447",
"a c #9D6A4D",
"s c #9D735D",
"d c #A36B48",
"f c #AB775B",
"g c #AD775B",
"h c #9D7373",
"j c #AB7C63",
"k c #AB7E67",
"l c #AD7E67",
"z c #AE7C68",
"x c #AE7C6E",
"c c #B47C63",
"v c #B47E67",
"b c #B67C68",
"n c #AE816E",
"m c #B5856D",
"M c #B5856E",
"N c #B78A6D",
"B c #B88373",
"V c #BC8A73",
"C c #BE8C73",
"Z c #BE8F73",
"A c #BE8F75",
"S c #533E82",
"D c #533E85",
"F c #533E8A",
"G c #694E82",
"H c #6D5185",
"J c white",
"K c None",
/* pixels */
"KKKKKKKKKKKKKKKKKKKKKKKKKKKKKKKKKKKKKKKKKKKKKKKKKKKKKKKKKKKKKKKK",
"KKKKKKKKKKKKKKKKKKKKKKKKKKKKKKKKKKKKKKKKKKKKKKKKKKKKKKKKKKKKKKKK",
"KKKKKKKKKKKKKKKKKKKKKKKKKKKKKKKKKKKKKKKKKKKKKKKKKKKKKKKKKKKKKKKK",
"KKKKKKKKKKKKKKKKKKKKKKKKKKKKKKKKKKKKKKKKKKKKKKKKKKKKKKKKKKKKKKKK",
"KKKKKKKKKKKKKKKKKKKKKKKKKKKKKKKKKKKKKKKKKKKKKKKKKKKKKKKKKKKKKKKK",
"KKKKKKKKKKKKKKKKKKKKKKKKKKKKKKKKKKKKKKKKKKKKKKKKKKKKKKKKKKKKKKKK",
"KKKKKKKKKKKKKKKKKKKKKKKKKKKKKKKKKKKKKKKKKKKKKKKKKKKKKKKKKKKKKKKK",
"KKKKKKKKKKKKKKKKKKKKKKKKKKKKKKKKKKKKKKKKKKKKKKKKKKKKKKKKKKKKKKKK",
"KKKKKKKKKKKKKKKKKKKKKKKKKKKKKKKKKKKKKKKKKKKKKKKKKKKKKKKKKKKKKKKK",
"KKKKKKKKKKKKKKKKKKKKKKKKKKKKKKKKKKKKKKKKKKKKKKKKKKKKKKKKKKKKKKKK",
"KKKKKKKKKKKKKKKKKKKKKKKKKKKKKKKKKKKKKKKKKKKKKKKKKKKKKKKKKKKKKKKK",
"KKKKKKKKKKKKKKKKKKKKKKKKKKKKKKKKKKKKKKKKKKKKKKKKKKKKKKKKKKKKKKKK",
"KKKKKKKKKKKKKKKKKKKKKKKKKKKKKKKKKKKKKKKKKKKKKKKKKKKKKKKKKKKKKKKK",
"KKKKKKKKKKKKKKKKKKKKKKKKKKKKKKKKKKKKKKKKKKKKKKKKKKKKKKKKKKKKKKKK",
"KKKKKKKKKKKKKKKKKKKKKKKKKKKKKKKKKKKKKKKKKKKKKKKKKKKKKKKKKKKKKKKK",
"KKKKKKKKKKKKKKKKKKKKKKKKKKKKKKKKKKKKKKKKKKKKKKKKKKKKKKKKKKKKKKKK",
"KKKKKKKKKKKKKKK&#%%++++++**XXXXXX.  ....O++++OOO&KKKKKKKKKKKKKKK",
"KKKKKKKKKKKKKKK&%%%+++++****XXXXX   ....+++++OOO&KKKKKKKKKKKKKKK",
"KKKKKKKKKKKKKKK&%%++++++*****XXX    ....++++XXOO&KKKKKKKKKKKKKKK",
"KKKKKKKKKKKKKKK&%%++%%++*****XXX    >>...+++XXOO&KKKKKKKKKKKKKKK",
"KKKKKKKKKKKKKKK&%%++%%$***++XXXXXXX>><<...++XXO+&KKKKKKKKKKKKKKK",
"KKKKKKKKKKKKKKK&#++++$$**+++XX--XX,,<<<<..@@XXX+&KKKKKKKKKKKKKKK",
"KKKKKKKKKKKKKKK&+++++++++++------,,,<<<<@@@@XXXX&KKKKKKKKKKKKKKK",
"KKKKKKKKKKKKKKK+++++++++++------,,,,<<<<@@;;XXXXoKKKKKKKKKKKKKKK",
"KKKKKKKKKKKKKKKo+++%%NNZZZZZZCCCCCCCCAAgggg;;XXXoKKKKKKKKKKKKKKK",
"KKKKKKKKKKKKKKKo++%%NNNZZZZZZZCCCCCCAAAAgggg;;XXoKKKKKKKKKKKKKKK",
"KKKKKKKKKKKKKKKo++%NNNNNZZkkZZZCCCCAAAAAAgggg;;ooKKKKKKKKKKKKKKK",
"KKKKKKKKKKKKKKKo++mNNNNNNkkknZZCCCCAAAAAAlggga;;oKKKKKKKKKKKKKKK",
"KKKKKKKKKKKKKKK==kmMMMMmkkknnnCCCCVVAAAAkkkfaaa;=KKKKKKKKKKKKKKK",
"KKKKKKKKKKKKKKK=kkkMMMMMkkknnnnCCVVVVAAVkkkkaaaa=KKKKKKKKKKKKKKK",
"KKKKKKKKKKKKKKK=kkkkMMMMkkkknnnnssVVVVVVVkkkkaaa=KKKKKKKKKKKKKKK",
"KKKKKKKKKKKKKKK=kkkkMMZZkkkknnnzsssVVVVVAAkkkkaa=KKKKKKKKKKKKKKK",
"KKKKKKKKKKKKKKK=kkkkMJJJFSGknnzbbsssVHDFJJJkkkka=KKKKKKKKKKKKKKK",
"KKKKKKKKKKKKKKK=MMkkJJJJFFSGxzbbVVssHDFFJJJJkkkk=KKKKKKKKKKKKKKK",
"KKKKKKKKKKKKKKK:MMMMJJJJFFFSzbbVVVVhDFFFJJJJkkkk:KKKKKKKKKKKKKKK",
"KKKKKKKKKKKKKKK:pMMMMJJJFFFBbbbVVVVBBFFFJJJVkkk9:KKKKKKKKKKKKKKK",
"KKKKKKKKKKKKKKKeppccMMccccccbb4444BBBVVVVVVVdd999KKKKKKKKKKKKKKK",
"KKKKKKKKKKKKKKKeppccccccccccc444444BBVVVVVVkdd99eKKKKKKKKKKKKKKK",
"KKKKKKKKKKKKKKKeppcccccccBBc44444444kkVVVVkkdd99eKKKKKKKKKKKKKKK",
"KKKKKKKKKKKKKKKeuppccccccBB5444444445kkVVvkkdt99wKKKKKKKKKKKKKKK",
"KKKKKKKKKKKKKKK7uuiijjcc5555555555555555cckktt00wKKKKKKKKKKKKKKK",
"KKKKKKKKKKKKKKK7uuiiijjj5555555555555555jjjttt00rKKKKKKKKKKKKKKK",
"KKKKKKKKKKKKKKKruuiiiijjj55555555555555jjjtttt00rKKKKKKKKKKKKKKK",
"KKKKKKKKKKKKKKKrryiiiiijji555555555555tjjttttt000KKKKKKKKKKKKKKK",
"KKKKKKKKKKKKKKK733iiiiiiiiiiiiiiiiiiittttttttt887KKKKKKKKKKKKKKK",
"KKKKKKKKKKKKKKK7333iiiiiiiiiiiiiiiiiitttttttt8887KKKKKKKKKKKKKKK",
"KKKKKKKKKKKKKKK7333311118800008888qq8888qqqq88887KKKKKKKKKKKKKKK",
"KKKKKKKKKKKKKKK6333211111880088888qq8888qqqq88887KKKKKKKKKKKKKKK",
"KKKKKKKKKKKKKKKKKKKKKKKKKKKKKKKKKKKKKKKKKKKKKKKKKKKKKKKKKKKKKKKK",
"KKKKKKKKKKKKKKKKKKKKKKKKKKKKKKKKKKKKKKKKKKKKKKKKKKKKKKKKKKKKKKKK",
"KKKKKKKKKKKKKKKKKKKKKKKKKKKKKKKKKKKKKKKKKKKKKKKKKKKKKKKKKKKKKKKK",
"KKKKKKKKKKKKKKKKKKKKKKKKKKKKKKKKKKKKKKKKKKKKKKKKKKKKKKKKKKKKKKKK",
"KKKKKKKKKKKKKKKKKKKKKKKKKKKKKKKKKKKKKKKKKKKKKKKKKKKKKKKKKKKKKKKK",
"KKKKKKKKKKKKKKKKKKKKKKKKKKKKKKKKKKKKKKKKKKKKKKKKKKKKKKKKKKKKKKKK",
"KKKKKKKKKKKKKKKKKKKKKKKKKKKKKKKKKKKKKKKKKKKKKKKKKKKKKKKKKKKKKKKK",
"KKKKKKKKKKKKKKKKKKKKKKKKKKKKKKKKKKKKKKKKKKKKKKKKKKKKKKKKKKKKKKKK",
"KKKKKKKKKKKKKKKKKKKKKKKKKKKKKKKKKKKKKKKKKKKKKKKKKKKKKKKKKKKKKKKK",
"KKKKKKKKKKKKKKKKKKKKKKKKKKKKKKKKKKKKKKKKKKKKKKKKKKKKKKKKKKKKKKKK",
"KKKKKKKKKKKKKKKKKKKKKKKKKKKKKKKKKKKKKKKKKKKKKKKKKKKKKKKKKKKKKKKK",
"KKKKKKKKKKKKKKKKKKKKKKKKKKKKKKKKKKKKKKKKKKKKKKKKKKKKKKKKKKKKKKKK",
"KKKKKKKKKKKKKKKKKKKKKKKKKKKKKKKKKKKKKKKKKKKKKKKKKKKKKKKKKKKKKKKK",
"KKKKKKKKKKKKKKKKKKKKKKKKKKKKKKKKKKKKKKKKKKKKKKKKKKKKKKKKKKKKKKKK",
"KKKKKKKKKKKKKKKKKKKKKKKKKKKKKKKKKKKKKKKKKKKKKKKKKKKKKKKKKKKKKKKK",
"KKKKKKKKKKKKKKKKKKKKKKKKKKKKKKKKKKKKKKKKKKKKKKKKKKKKKKKKKKKKKKKK"
};
