/* XPM */
static char *_22886132ec84ab5a38157b0ddc6c2caq1gjHDwGDKNi1vb3[] = {
/* columns rows colors chars-per-pixel */
"64 64 18 1 ",
"  c #1E1E1E",
". c gray12",
"X c #202020",
"o c #252525",
"O c gray16",
"+ c #2C2C2C",
"@ c gray20",
"# c #343434",
"$ c gray23",
"% c #3E3E3E",
"& c #414141",
"* c gray28",
"= c #4B4B4B",
"- c #4C4C4C",
"; c #535353",
": c #565656",
"> c #585858",
", c #717171",
/* pixels */
"**==&==**=**==%-=****=====&*-=&-*===*=***==**#@;******==*===*=&=",
"*&%%%&%&%$#%&#o-=&&&$%%*$&%%%&&%%%%%%&%&%%%@@++-*$&&%%%%&%&%&&&%",
"%$$$%$%%$$$%#+o-*&%%$$$$%$&$$$#%$$%$$$$$$$@@@Oo;=&%%$$&&%#%$%%$$",
"####@%#Ooo##+@X-=&$$$@@#$#@$#$#$#$@#$##+$++++@o;-%$#$$#+##$$##@$",
"#$##$$$OOo+#@OX,*$$@%###@##$@###@@$%@#$$$@+$@@o;=%#$@#$$$$#@$#$@",
"###$#$#@%OO##@O:*%$####$@$#@##@@$##$$###++@#O#X-*&$$#$#@@#$$@@%#",
"$###@##$#OOO@@o:=%$$%######$$#$$$$###%$#+@$@@Oo;=&$##$$$@#$@@@$@",
"#@$####@@$OOoOo:=%$#$##@##$#$#$#$##@$##$Oo$##Oo;*$$@##@#$#$#$#+$",
"$$##&###@$#Oo+o-&*$#%@#$##$##$#$@#%@$#@OOO##+@o;=&$$@$#@@#$@$$$#",
"@$$@##$$@#$OO@o;*&$$@$%#%#$$#$##@@#@#%#OO##$@Oo;&&$#$#@$$$$##$##",
"@@$@##@##$#oOoo;*&%###$#$$##%##$$#$###$oO##$#@o-*&$#@@#######$$#",
"##$##%$$#$#$OoX;=&%##$$$$##$$#@%#%#$%$#OO###@+o@+O$$@#$###OOOO$$",
"#+@#+@+@@+@O@Oo;=%@@#+#####@@@++@@@@+@@oO+@@@OO@+OO@@+@#OoOOooO#",
"++O@O@OO+@O@Ooo;*#O++@++++O@++O@O@+@+++oo+++O+o:=Oo@+@+oooo++#@+",
"OXXXXooXoooXooX;@XooX+XOXXXOooooXOXooooooXOoXOo:$oXooXXooOoooXXo",
"*=*-=*-*=***;:-:*******=***=*&*&=***=+++****::::=*@+@++O=&**-===",
"*=*=**&===****===*****=*==**==$;*==*+@O====*-==**==++++*===&--$;",
"=%&%%%%%&%$$%&%%$%&&%&&%&%%%&#X;=&&OOO%&&%$&$&$&%$*%++*%%&&%%#o-",
"*&%%&$$&%&$%#$%%&&$%%&$$$$$$#+O;*&OOO&$%$$%$#%$$&&$$OO%%%%$%#@o;",
"*%%$#$$##@@####$##@#$#@@$##$$+X;=OOO$$$######@$#$$##OO##@###@+o-",
"=&@@$$###$##@@$%#$#@$$#$#%#$@+X;*+O##$$#$$$+@$@$#%$$OoO##%$#+OO;",
"&&$$#$$##$$$$$@###$$@#@$#@$$@+o;+OO$#$@@@@$$#$$@@$$##Oo$$#@@@+X;",
"*%%@#@##$#%#$@@#$$$##$#$#$@@++o;++%@$#$####$@@##@$##$oOO$@@@@Oo;",
"*&%$@$$#$$##%#$@$@#$##%#$@$$#+X@@O%###$$$####$$###$##$OOO#$#@OO:",
"&&$##$#@@#%#$###@$$###$##$$#@++@+%$@#$$@#%#######@%$@#$oOOO$@@.-",
"*%&#@$#$$#$###$$#@#$$$###$#@+++@&%&@###$#$$@#$#$###$%$#%oOo$@O.;",
"*%$##$$#$###$@$$#@#$##$#$$#+++X;**$$$#$$##$#$$@$$##$#@##%@##@OX;",
"=%$$$#$$@##$#$###@$#$#@$@##%@@o;=&$#$$##@#@@@@@@#$$#$$##$@#$@OO;",
"=%#+@@@#@+#+@##@#@@@+###+@+@#Oo:=&##@@@@@@@@@#+@@+@@@@@@+@@+@+o:",
"=@+O@++++++++#@@+@O@O@++O+++++o;=$++O@++@@O+O##++@++++OO+O+OO+X;",
"#XO.oXOXOoooXoooOoXX.oXXOoXoOoX;@ooooooXOoOooooXXooo..XoOoooooo;",
"=************##++*=***====*&;::;*=**=**=*****==*=*****=&=***;;-;",
"==*===*=*==*@@+@+==*=*=****==*====-=*==**&==*=$;*=&*==*=**&=***=",
"%%%%%%$&&&&#@@O@+%&%%%#%&&%&%&&&%%&%&&$&&%%&&#O;=$*&%%&%&&*%%*%%",
"%$%$$$$%$%@+++o++&%$%$%$$&&$$%#%$$%%%%&$$%$&#+o;=&$%#%%$$%$#$$$%",
"#@#@@$$@$++@@+X@+$$$#$@$####$%#$#$@#$+#O$###@OX;-%%#$##@###$$$#$",
"$##$$#$$++@Oooo#+*$###%####%####$##$##$++#$$++X;*$$#$$#$$$##@#$@",
"#$@@#$#@@+$$Ooo#+%$$$#@$$$$@#$#####$$$#$@+@@#@o;=&%#$##@@#%@##$#",
"%#@#@++@@#$@#oX@+$$######$@###$$$%####$#$++o#+o;=&$@$$#@$#%#@$##",
"$$$#+@++##@#@@O@+%$#$@$@$#$$@$#$#@#$@#$$$@OOO+X;&&%$#%$$%$#$@#@#",
"$@$@+@##$$$@@+o@+*$$#####$$$$##$$@#######@$oOoo;=%$####@##$###$$",
"#$#@####@$@$@+X@+&$@#%$$##$#@$$$#$%#$@#%$$##ooX;=$%#$#$$$#######",
"#$$$#####%$#@@X@=&$#$#$$$$$$##$#@@#$#$$###@#OoX;*%&@##%###$#@$@#",
"$%####$%#@@$ooo@=%%###$@#$@##$$#$$$#$$#$#$%$@oo;*&$###$#OOo$$$$#",
"@+@@#@+#+@oOooX;=$@@@#@@###@@@+#+++#@@@@#@#@+oo:=%$@@@+oOo@++@+#",
"+O@++@+oOoooo@O;=$++++++++@O+@+++@+@@O+ooooOooo#@++O+++Oo@O+@@O@",
"ooXooXooXooXXoX:$oXo.OoOoXOX+ooXooooXXooooXXooo@@O++O++oXOXOOXoO",
"*==*=*=*@@*=::-;=***=**=&****=**=***=++@@@#*:;@@+*******&=**-=--",
"*&-==**@@#***=-****===*==-*===$;*=*=+++@@===*==++====**===*&==$-",
"=$&%%%%@+$&%&&$%%&$&&%*&%&%%&$X-*&%O+O@@$$%&&*$OO+$%&%&&%&%&&#o;",
"*%%$$%+@@$$%@$$$&%$%$&$$$$%$#+o;*&O+O@+%$&$%$$$$OO$%%%$$%%%%$+X;",
"*$%$$@+@#$###@#$##$%$#@#@##%@+o;*+OO@+@######@%#@+@@###$###$#Oo-",
"*&$+@++#$$##$@@#@#$##@$$#%###+o;++O+@$@$#%#@##$+++###$$@$#@##+o;",
"*%$@+$$#+##$#$$#@$$#$$@@$##$@+o++%%$#####%#$@$+@+%@@@$#$#$$@@oo;",
"*&$#$@$#$####@#$#$$##$#$$$@#+Oo;-%$#$#%$$@%#@@+@#%$$#$$##$#$@+X;",
"=&$@#$##$$$##$####@##$$##$$##Oo;=&%##$$##@$#$$##$#####$#$$###OX:",
"*$$#$$#$@@##$#$@@@$##$@@$$#%@+X-=%%@@%###%$@$#$@##$$$##@##$$++o-",
"=&&$@$##$###$#@##$@#$$$##$##++o;=%%##$####@@%#@@#$#$#%##%#$##+O-",
"*%$$$@$@@#%#%$##$#####$$@#$#@@O;=%%@$$$$$@##$##%%###$$$$$#$#O@o;",
"&*$#$#%$##$#@@#$#@$@$####$##+OX:*&%$@##$#$##$#$#@@$$#$#$###$@+O-",
"*%@@@@@$@#@+@#@+###@+@@@#@@O@+o:*%#+++#@@@@@@@@@###@++#@@#+@@+o;",
"=@@O++OO+@O+O+++@+++@@+++O@++@X>=$+@++O@+@++O@O#@++O+@+#O+O+@+o;",
"#oo.oooXooXOoOooXoOXXoOooooooo+-#OXXO.ooXoXoOooXXXOXoXooooXooXO:",
"==&****&*****&****=*=****=**;;:;****==*=**=**=*=****=&=**=**>;:;"
};
